<?xml version="1.0" encoding="UTF-8" standalone="no"?>
<svg width="90px" height="90px" viewBox="0 0 90 90" version="1.1" xmlns="http://www.w3.org/2000/svg" xmlns:xlink="http://www.w3.org/1999/xlink" xmlns:sketch="http://www.bohemiancoding.com/sketch/ns">
    <!-- Generator: Sketch Beta 3.2 (9961) - http://www.bohemiancoding.com/sketch -->
    <title>Oval 1 + Rectangle 13</title>
    <desc>Created with Sketch Beta.</desc>
    <defs></defs>
    <g id="Page-1" stroke="none" stroke-width="1" fill="none" fill-rule="evenodd" sketch:type="MSPage">
        <g id="Tour-de-chrome" sketch:type="MSArtboardGroup" transform="translate(-90.000000, -230.000000)">
            <g id="Oval-1-+-Rectangle-13" sketch:type="MSLayerGroup" transform="translate(90.000000, 230.000000)">
                <path d="M45,90 C69.8528137,90 90,69.8528137 90,45 C90,20.1471863 69.8528137,0 45,0 C20.1471863,0 0,20.1471863 0,45 C0,69.8528137 20.1471863,90 45,90 Z" id="Oval-1" fill="#FF5722" sketch:type="MSShapeGroup"></path>
                <path d="M62.1275448,29.6647426 C62.1281307,24.2912665 54.4237797,20 44.9199801,20 C35.4161805,20 27.7118296,24.2912665 27.7118296,29.5848126 C27.7118296,29.6306405 27.712407,29.6763933 27.713558,29.7220689 C27.7032017,30.0172256 27.7253367,30.3244455 27.7825124,30.6404721 C23.850785,31.8469251 20.9035838,35.1870889 20.1742697,39.3020586 C19.1048536,45.3359682 23.0679623,51.1053735 29.0261209,52.188386 C29.0751866,52.1973047 29.1235221,52.2099406 29.1707198,52.2261874 C29.6916093,52.4054916 29.9703438,52.9784793 29.7932906,53.5059913 C29.6162374,54.0335033 29.050443,54.3157815 28.5295535,54.1364773 C28.008664,53.9571731 27.7299296,53.3841854 27.9069828,52.8566734 L24.1053581,51.5480516 C23.2146464,54.2018367 24.6168917,57.0843992 27.2373605,57.9864352 C29.8472964,58.8848455 32.6813253,57.4797765 33.5840809,54.8465579 L34.0282229,56.6971579 C34.4768685,58.5665235 36.2374204,60.7477715 37.9521472,61.5651181 L38.3603283,61.759683 C41.8008685,63.3996608 47.3838789,63.4160638 50.8382794,61.7925846 L51.3562517,61.5491509 C53.0804233,60.7388347 54.8672297,58.568812 55.3445095,56.7127153 L56.1521352,53.5719343 C56.1839981,53.9861703 56.2669792,54.4031417 56.4050847,54.8146131 C57.2957964,57.4683981 60.1421706,58.8884713 62.7626395,57.9864352 C65.3831083,57.0843992 66.7853536,54.2018367 65.8946419,51.5480516 L62.0930172,52.8566734 C62.2700704,53.3841854 61.991336,53.9571731 61.4704465,54.1364773 C60.949557,54.3157815 60.3837626,54.0335033 60.2067094,53.5059913 C60.0296562,52.9784793 60.3083907,52.4054916 60.8292802,52.2261874 C60.8764779,52.2099406 60.9248134,52.1973047 60.9738791,52.188386 C66.9320377,51.1053735 70.8951464,45.3359682 69.8257303,39.3020586 C69.0861902,35.129391 66.0661309,31.7534095 62.0515247,30.5909856 C62.1122082,30.2720221 62.1366785,29.9621313 62.1275448,29.6647426 Z M57,50 C57.5904778,49.0877935 58.4696759,48.3613573 59.5600082,47.9819285 C59.797191,47.8993904 60.0400909,47.8351961 60.2866606,47.7898868 C64.0580462,47.0968618 66.5666084,43.4049913 65.889691,39.5438632 C65.4277972,36.9092266 63.5604849,34.7709373 61.0697331,34 L57,50 Z M32,49 C31.5082197,48.5064531 30.9098266,48.1148048 30.2253609,47.8690897 C29.9960829,47.7867816 29.7612783,47.7227662 29.5229263,47.6775832 C25.8772327,46.9864895 23.4522755,43.3049074 24.1066326,39.4545394 C24.5395581,36.9071196 26.2497115,34.8250258 28.5480447,34 L32,49 Z M59,29.5 C59,25.9101489 52.7319869,23 45,23 C37.2680131,23 31,25.9101489 31,29.5 C31,33.0898511 37.2680131,36 45,36 C52.7319869,36 59,33.0898511 59,29.5 Z M43.3953488,45.920904 L41.3488372,47.5056497 L40,45.6567797 L43.6124031,43 L46,43 L46,54 L43.3953488,54 L43.3953488,45.920904 Z M45.379297,69.9855118 C38.4040614,70.2631863 28.5637729,66.5165861 30.175466,61.5795443 C30.5077283,60.5617372 31.4265696,59.6971894 32.801892,59 L32.9147618,59.4133259 C33.400423,61.1918038 35.2125266,63.2277462 36.9481439,63.9548387 L38.5864597,64.6411692 C42.075714,66.102903 47.7332378,66.1193967 51.2301756,64.6750007 L53.011284,63.9393211 C54.7572406,63.2181608 56.5936842,61.1944074 57.1103338,59.4285815 L57.1684645,59.2298998 C58.313755,59.8842547 59.1400485,60.6708143 59.6027553,61.5795443 C62.0906409,66.4656106 52.3545325,69.7078372 45.379297,69.9855118 Z" id="Rectangle-13" fill="#FFFFFF" sketch:type="MSShapeGroup"></path>
            </g>
        </g>
    </g>
</svg>